<mxfile host="65bd71144e">
    <diagram id="4z9CwgKkjVlR1Sz_bgtu" name="GetStat">
        <mxGraphModel dx="707" dy="413" grid="0" gridSize="10" guides="1" tooltips="1" connect="1" arrows="1" fold="1" page="1" pageScale="1" pageWidth="827" pageHeight="1169" math="0" shadow="0">
            <root>
                <mxCell id="0"/>
                <mxCell id="1" parent="0"/>
                <mxCell id="3" value="&lt;font style=&quot;font-size: 10px;&quot;&gt;Начало&lt;/font&gt;" style="strokeWidth=1;html=1;shape=mxgraph.flowchart.terminator;whiteSpace=wrap;" vertex="1" parent="1">
                    <mxGeometry x="450" y="430" width="100" height="33" as="geometry"/>
                </mxCell>
                <mxCell id="4" value="" style="endArrow=classic;html=1;exitX=0.5;exitY=1;exitDx=0;exitDy=0;exitPerimeter=0;entryX=0.5;entryY=0;entryDx=0;entryDy=0;" edge="1" parent="1" source="3">
                    <mxGeometry width="50" height="50" relative="1" as="geometry">
                        <mxPoint x="430" y="520" as="sourcePoint"/>
                        <mxPoint x="500" y="490.0000000000001" as="targetPoint"/>
                    </mxGeometry>
                </mxCell>
                <mxCell id="7" value="" style="group" vertex="1" connectable="0" parent="1">
                    <mxGeometry x="450" y="584" width="100" height="100" as="geometry"/>
                </mxCell>
                <mxCell id="8" value="" style="verticalLabelPosition=bottom;verticalAlign=top;html=1;shape=process;whiteSpace=wrap;rounded=1;size=0.14;arcSize=6;" vertex="1" parent="7">
                    <mxGeometry width="100" height="66" as="geometry"/>
                </mxCell>
                <mxCell id="9" value="&lt;span style=&quot;color: rgb(0, 0, 0); font-family: Helvetica; font-style: normal; font-variant-ligatures: normal; font-variant-caps: normal; font-weight: 400; letter-spacing: normal; orphans: 2; text-indent: 0px; text-transform: none; widows: 2; word-spacing: 0px; -webkit-text-stroke-width: 0px; white-space: normal; background-color: rgb(251, 251, 251); text-decoration-thickness: initial; text-decoration-style: initial; text-decoration-color: initial; float: none; display: inline !important;&quot;&gt;Рассчитать процент вариантов голосования&lt;/span&gt;" style="text;whiteSpace=wrap;html=1;fontSize=10;align=center;" vertex="1" parent="7">
                    <mxGeometry x="10" y="2" width="80" height="50" as="geometry"/>
                </mxCell>
                <mxCell id="10" value="" style="endArrow=classic;html=1;exitX=0.5;exitY=1;exitDx=0;exitDy=0;exitPerimeter=0;entryX=0.5;entryY=0;entryDx=0;entryDy=0;" edge="1" parent="1">
                    <mxGeometry width="50" height="50" relative="1" as="geometry">
                        <mxPoint x="499.63" y="556" as="sourcePoint"/>
                        <mxPoint x="499.63" y="583" as="targetPoint"/>
                    </mxGeometry>
                </mxCell>
                <mxCell id="11" value="" style="endArrow=classic;html=1;exitX=0.5;exitY=1;exitDx=0;exitDy=0;exitPerimeter=0;entryX=0.5;entryY=0;entryDx=0;entryDy=0;" edge="1" parent="1">
                    <mxGeometry width="50" height="50" relative="1" as="geometry">
                        <mxPoint x="499.63" y="650" as="sourcePoint"/>
                        <mxPoint x="499.63" y="677" as="targetPoint"/>
                    </mxGeometry>
                </mxCell>
                <mxCell id="12" value="&lt;font style=&quot;font-size: 10px;&quot;&gt;Загрузить данные в представление&lt;/font&gt;" style="rounded=1;whiteSpace=wrap;html=1;absoluteArcSize=1;arcSize=14;strokeWidth=1;" vertex="1" parent="1">
                    <mxGeometry x="450" y="679" width="100" height="70" as="geometry"/>
                </mxCell>
                <mxCell id="13" value="" style="endArrow=classic;html=1;exitX=0.5;exitY=1;exitDx=0;exitDy=0;exitPerimeter=0;entryX=0.5;entryY=0;entryDx=0;entryDy=0;" edge="1" parent="1">
                    <mxGeometry width="50" height="50" relative="1" as="geometry">
                        <mxPoint x="499.63" y="749" as="sourcePoint"/>
                        <mxPoint x="499.63" y="776" as="targetPoint"/>
                    </mxGeometry>
                </mxCell>
                <mxCell id="14" value="&lt;font style=&quot;font-size: 10px;&quot;&gt;Конец&lt;/font&gt;" style="strokeWidth=1;html=1;shape=mxgraph.flowchart.terminator;whiteSpace=wrap;" vertex="1" parent="1">
                    <mxGeometry x="451" y="778" width="100" height="33" as="geometry"/>
                </mxCell>
                <mxCell id="7IrCIQeYHhiLmshSCIm6-14" value="&lt;font style=&quot;font-size: 10px;&quot;&gt;Сделать выборку из базы данных&lt;/font&gt;" style="rounded=1;whiteSpace=wrap;html=1;absoluteArcSize=1;arcSize=14;strokeWidth=1;" vertex="1" parent="1">
                    <mxGeometry x="450" y="489" width="100" height="70" as="geometry"/>
                </mxCell>
            </root>
        </mxGraphModel>
    </diagram>
    <diagram id="aXdOAhDL08LiBJULmYzK" name="MainAlg">
        <mxGraphModel dx="734" dy="429" grid="0" gridSize="10" guides="1" tooltips="1" connect="1" arrows="1" fold="1" page="1" pageScale="1" pageWidth="827" pageHeight="1169" math="0" shadow="0">
            <root>
                <mxCell id="0"/>
                <mxCell id="1" parent="0"/>
                <mxCell id="2vxdM5okGHiBBS5rs92Z-1" value="&lt;font style=&quot;font-size: 10px;&quot;&gt;Начало&lt;/font&gt;" style="strokeWidth=1;html=1;shape=mxgraph.flowchart.terminator;whiteSpace=wrap;" vertex="1" parent="1">
                    <mxGeometry x="450" y="430" width="100" height="33" as="geometry"/>
                </mxCell>
                <mxCell id="2vxdM5okGHiBBS5rs92Z-2" value="" style="endArrow=classic;html=1;exitX=0.5;exitY=1;exitDx=0;exitDy=0;exitPerimeter=0;entryX=0.5;entryY=0;entryDx=0;entryDy=0;" edge="1" parent="1" source="2vxdM5okGHiBBS5rs92Z-1">
                    <mxGeometry width="50" height="50" relative="1" as="geometry">
                        <mxPoint x="430" y="520" as="sourcePoint"/>
                        <mxPoint x="500" y="490" as="targetPoint"/>
                    </mxGeometry>
                </mxCell>
                <mxCell id="2vxdM5okGHiBBS5rs92Z-9" value="" style="endArrow=classic;html=1;exitX=0.5;exitY=1;exitDx=0;exitDy=0;exitPerimeter=0;entryX=0.5;entryY=0;entryDx=0;entryDy=0;" edge="1" parent="1">
                    <mxGeometry width="50" height="50" relative="1" as="geometry">
                        <mxPoint x="499.63" y="556" as="sourcePoint"/>
                        <mxPoint x="499.63" y="583" as="targetPoint"/>
                    </mxGeometry>
                </mxCell>
                <mxCell id="2vxdM5okGHiBBS5rs92Z-10" value="" style="endArrow=classic;html=1;exitX=0.5;exitY=1;exitDx=0;exitDy=0;exitPerimeter=0;entryX=0.5;entryY=0;entryDx=0;entryDy=0;" edge="1" parent="1">
                    <mxGeometry width="50" height="50" relative="1" as="geometry">
                        <mxPoint x="499.63" y="650" as="sourcePoint"/>
                        <mxPoint x="499.63" y="677" as="targetPoint"/>
                    </mxGeometry>
                </mxCell>
                <mxCell id="2vxdM5okGHiBBS5rs92Z-11" value="&lt;font style=&quot;font-size: 10px;&quot;&gt;Подтвердить выбранный вариант и отправить результат&lt;/font&gt;" style="rounded=1;whiteSpace=wrap;html=1;absoluteArcSize=1;arcSize=14;strokeWidth=1;" vertex="1" parent="1">
                    <mxGeometry x="450" y="679" width="100" height="70" as="geometry"/>
                </mxCell>
                <mxCell id="2vxdM5okGHiBBS5rs92Z-12" value="" style="endArrow=classic;html=1;exitX=0.5;exitY=1;exitDx=0;exitDy=0;exitPerimeter=0;entryX=0.5;entryY=0;entryDx=0;entryDy=0;" edge="1" parent="1">
                    <mxGeometry width="50" height="50" relative="1" as="geometry">
                        <mxPoint x="499.63" y="749" as="sourcePoint"/>
                        <mxPoint x="499.63" y="776" as="targetPoint"/>
                    </mxGeometry>
                </mxCell>
                <mxCell id="2vxdM5okGHiBBS5rs92Z-13" value="&lt;font style=&quot;font-size: 10px;&quot;&gt;Конец&lt;/font&gt;" style="strokeWidth=1;html=1;shape=mxgraph.flowchart.terminator;whiteSpace=wrap;" vertex="1" parent="1">
                    <mxGeometry x="451" y="778" width="100" height="33" as="geometry"/>
                </mxCell>
                <mxCell id="2vxdM5okGHiBBS5rs92Z-14" value="&lt;font style=&quot;font-size: 10px;&quot;&gt;Выбрать голосование&lt;/font&gt;" style="rounded=1;whiteSpace=wrap;html=1;absoluteArcSize=1;arcSize=14;strokeWidth=1;" vertex="1" parent="1">
                    <mxGeometry x="450" y="489" width="100" height="70" as="geometry"/>
                </mxCell>
                <mxCell id="2vxdM5okGHiBBS5rs92Z-15" value="&lt;font style=&quot;font-size: 10px;&quot;&gt;Выбрать вариант для голосования&lt;/font&gt;" style="rounded=1;whiteSpace=wrap;html=1;absoluteArcSize=1;arcSize=14;strokeWidth=1;" vertex="1" parent="1">
                    <mxGeometry x="450" y="584.5" width="100" height="70" as="geometry"/>
                </mxCell>
            </root>
        </mxGraphModel>
    </diagram>
</mxfile>